<svg xmlns="http://www.w3.org/2000/svg" xmlns:xlink="http://www.w3.org/1999/xlink" width="500" zoomAndPan="magnify" viewBox="0 0 375 374.999991" height="500" preserveAspectRatio="xMidYMid meet" version="1.0"><defs><g/><clipPath id="2242ff7673"><rect x="0" width="83" y="0" height="70"/></clipPath><clipPath id="62016cf281"><rect x="0" width="109" y="0" height="70"/></clipPath><clipPath id="0c075c3f77"><rect x="0" width="45" y="0" height="70"/></clipPath></defs><rect x="-37.5" width="450" fill="#ffffff" y="-37.499999" height="449.999989" fill-opacity="1"/><rect x="-37.5" width="450" fill="#ffffff" y="-37.499999" height="449.999989" fill-opacity="1"/><g transform="matrix(1, 0, 0, 1, 70, 152)"><g clip-path="url(#2242ff7673)"><g fill="#000000" fill-opacity="1"><g transform="translate(0.248135, 54.585465)"><g><path d="M 13.0625 -40.53125 L 17.34375 -40.53125 L 11.71875 -19.734375 L 17.53125 0 L 13.375 0 L 9.265625 -14 L 5.625 0 L 1.265625 0 L 7.078125 -21.46875 L 1.453125 -40.53125 L 5.625 -40.53125 L 9.578125 -27.046875 Z M 13.0625 -40.53125 "/></g></g></g><g fill="#000000" fill-opacity="1"><g transform="translate(18.996669, 54.585465)"><g><path d="M 20.5625 -40.53125 L 26.53125 -40.53125 L 26.53125 0 L 22.296875 0 L 22.296875 -16.265625 L 22.6875 -31.421875 L 17.1875 -0.0625 L 12.875 -0.0625 L 7.140625 -31.421875 L 7.53125 -16.265625 L 7.53125 0 L 3.3125 0 L 3.3125 -40.53125 L 9.265625 -40.53125 L 15.0625 -7.203125 Z M 20.5625 -40.53125 "/></g></g></g><g fill="#000000" fill-opacity="1"><g transform="translate(48.846915, 54.585465)"><g><path d="M 3.6875 -40.53125 L 11.015625 -40.53125 C 14.066406 -40.53125 16.140625 -39.835938 17.234375 -38.453125 C 18.335938 -37.066406 18.90625 -34.722656 18.9375 -31.421875 L 18.9375 -30.546875 C 18.9375 -28.160156 18.710938 -26.285156 18.265625 -24.921875 C 17.816406 -23.554688 17.019531 -22.566406 15.875 -21.953125 C 18.351562 -20.941406 19.59375 -17.691406 19.59375 -12.203125 L 19.59375 -11.359375 C 19.550781 -7.304688 18.9375 -4.398438 17.75 -2.640625 C 16.570312 -0.878906 14.523438 0 11.609375 0 L 3.6875 0 Z M 14.8125 -12.90625 C 14.8125 -15.507812 14.59375 -17.332031 14.15625 -18.375 C 13.726562 -19.425781 12.882812 -19.953125 11.625 -19.953125 L 8.453125 -19.953125 L 8.453125 -3.84375 L 11.375 -3.84375 C 12.726562 -3.84375 13.640625 -4.375 14.109375 -5.4375 C 14.578125 -6.5 14.8125 -8.519531 14.8125 -11.5 Z M 14.21875 -31.34375 C 14.21875 -31.394531 14.21875 -31.441406 14.21875 -31.484375 C 14.21875 -34.191406 13.75 -35.789062 12.8125 -36.28125 C 12.34375 -36.519531 11.671875 -36.640625 10.796875 -36.640625 L 8.453125 -36.640625 L 8.453125 -23.609375 L 11.140625 -23.609375 C 12.066406 -23.609375 12.722656 -23.753906 13.109375 -24.046875 C 13.503906 -24.347656 13.785156 -24.941406 13.953125 -25.828125 C 14.128906 -26.722656 14.21875 -28.1875 14.21875 -30.21875 Z M 14.21875 -31.34375 "/></g></g></g><g fill="#000000" fill-opacity="1"><g transform="translate(70.784762, 54.585465)"><g/></g></g></g></g><g transform="matrix(1, 0, 0, 1, 148, 152)"><g clip-path="url(#62016cf281)"><g fill="#000000" fill-opacity="1"><g transform="translate(0.530068, 54.751974)"><g><path d="M 2.859375 -29.0625 C 2.859375 -35.019531 4.269531 -38.722656 7.09375 -40.171875 C 8.195312 -40.722656 9.410156 -41.003906 10.734375 -41.015625 C 13.203125 -41.015625 14.988281 -40.488281 16.09375 -39.4375 C 17.207031 -38.382812 17.921875 -36.992188 18.234375 -35.265625 C 18.554688 -33.546875 18.71875 -31.445312 18.71875 -28.96875 L 18.71875 -25.84375 L 14.125 -25.84375 L 14.125 -31.125 C 14.125 -33.195312 13.910156 -34.675781 13.484375 -35.5625 C 13.066406 -36.457031 12.238281 -36.90625 11 -36.90625 C 9.757812 -36.90625 8.882812 -36.34375 8.375 -35.21875 C 7.875 -34.09375 7.625 -32.113281 7.625 -29.28125 L 7.625 -12.234375 C 7.625 -8.992188 7.84375 -6.738281 8.28125 -5.46875 C 8.726562 -4.195312 9.609375 -3.5625 10.921875 -3.5625 C 12.242188 -3.5625 13.144531 -4.210938 13.625 -5.515625 C 14.101562 -6.828125 14.34375 -9.097656 14.34375 -12.328125 L 14.34375 -17.59375 L 11.0625 -17.59375 L 11.0625 -21.28125 L 18.71875 -21.28125 L 18.71875 0 L 16.21875 0 L 15.578125 -3.125 C 14.671875 -0.78125 12.9375 0.390625 10.375 0.390625 C 7.820312 0.390625 5.929688 -0.601562 4.703125 -2.59375 C 3.472656 -4.582031 2.859375 -7.738281 2.859375 -12.0625 Z M 2.859375 -29.0625 "/></g></g></g><g fill="#000000" fill-opacity="1"><g transform="translate(22.226775, 54.751974)"><g><path d="M 3.3125 -40.53125 L 11.8125 -40.53125 C 14.226562 -40.53125 15.960938 -40.03125 17.015625 -39.03125 C 18.078125 -38.039062 18.71875 -36.347656 18.9375 -33.953125 C 19.03125 -32.972656 19.078125 -31.441406 19.078125 -29.359375 C 19.078125 -27.273438 18.800781 -25.523438 18.25 -24.109375 C 17.707031 -22.703125 16.742188 -21.789062 15.359375 -21.375 C 16.378906 -21.207031 17.148438 -20.671875 17.671875 -19.765625 C 18.191406 -18.867188 18.554688 -17.441406 18.765625 -15.484375 C 18.984375 -13.523438 19.09375 -10.613281 19.09375 -6.75 C 19.09375 -2.894531 19.21875 -0.644531 19.46875 0 L 14.71875 0 C 14.46875 -0.488281 14.34375 -5.039062 14.34375 -13.65625 C 14.34375 -16.5625 14.054688 -18.25 13.484375 -18.71875 C 12.921875 -19.1875 12.066406 -19.421875 10.921875 -19.421875 L 8.078125 -19.578125 L 8.078125 0 L 3.3125 0 Z M 14.34375 -30.609375 C 14.34375 -33.722656 14.0625 -35.523438 13.5 -36.015625 C 12.945312 -36.515625 12.140625 -36.765625 11.078125 -36.765625 L 8.078125 -36.765625 L 8.078125 -23.078125 L 11.125 -23.078125 C 12.039062 -23.078125 12.710938 -23.253906 13.140625 -23.609375 C 13.578125 -23.960938 13.882812 -24.640625 14.0625 -25.640625 C 14.25 -26.640625 14.34375 -28.203125 14.34375 -30.328125 Z M 14.34375 -30.609375 "/></g></g></g><g fill="#000000" fill-opacity="1"><g transform="translate(44.176848, 54.751974)"><g><path d="M 2.859375 -29.53125 C 2.859375 -34.132812 3.6875 -37.296875 5.34375 -39.015625 C 6.644531 -40.367188 8.539062 -41.046875 11.03125 -41.046875 C 14.65625 -41.046875 16.972656 -39.554688 17.984375 -36.578125 C 18.585938 -34.804688 18.890625 -32.457031 18.890625 -29.53125 L 18.890625 -11.65625 C 18.890625 -7.4375 18.296875 -4.363281 17.109375 -2.4375 C 15.929688 -0.507812 13.863281 0.453125 10.90625 0.453125 C 7.945312 0.453125 5.863281 -0.507812 4.65625 -2.4375 C 3.457031 -4.375 2.859375 -7.445312 2.859375 -11.65625 Z M 14.125 -29.8125 C 14.125 -32.40625 13.914062 -34.238281 13.5 -35.3125 C 13.082031 -36.394531 12.242188 -36.9375 10.984375 -36.9375 C 9.722656 -36.9375 8.847656 -36.382812 8.359375 -35.28125 C 7.867188 -34.175781 7.625 -32.359375 7.625 -29.828125 L 7.625 -11.609375 C 7.625 -8.523438 7.835938 -6.425781 8.265625 -5.3125 C 8.691406 -4.195312 9.554688 -3.640625 10.859375 -3.640625 C 12.171875 -3.640625 13.039062 -4.203125 13.46875 -5.328125 C 13.90625 -6.460938 14.125 -8.554688 14.125 -11.609375 Z M 14.125 -29.8125 "/></g></g></g><g fill="#000000" fill-opacity="1"><g transform="translate(65.91962, 54.751974)"><g><path d="M 14.34375 -40.53125 L 19.09375 -40.53125 L 19.09375 -10.40625 C 19.09375 -6.613281 18.5 -3.847656 17.3125 -2.109375 C 16.125 -0.378906 14.0625 0.484375 11.125 0.484375 C 8.1875 0.484375 6.113281 -0.378906 4.90625 -2.109375 C 3.695312 -3.847656 3.09375 -6.613281 3.09375 -10.40625 L 3.09375 -40.53125 L 7.859375 -40.53125 L 7.859375 -10.53125 C 7.859375 -7.820312 7.96875 -6.203125 8.1875 -5.671875 C 8.40625 -5.148438 8.640625 -4.734375 8.890625 -4.421875 C 9.316406 -3.835938 10.0625 -3.546875 11.125 -3.546875 C 12.1875 -3.546875 12.96875 -3.867188 13.46875 -4.515625 C 13.976562 -5.160156 14.25 -6.117188 14.28125 -7.390625 C 14.320312 -8.671875 14.34375 -9.707031 14.34375 -10.5 Z M 14.34375 -40.53125 "/></g></g></g><g fill="#000000" fill-opacity="1"><g transform="translate(88.10002, 54.751974)"><g><path d="M 3.3125 -40.53125 L 11.46875 -40.53125 C 15.0625 -40.53125 17.320312 -39.039062 18.25 -36.0625 C 18.832031 -34.195312 19.125 -32.007812 19.125 -29.5 C 19.125 -27 19.050781 -25.117188 18.90625 -23.859375 C 18.601562 -21.097656 17.875 -19.082031 16.71875 -17.8125 C 15.570312 -16.550781 13.820312 -15.921875 11.46875 -15.921875 L 8.078125 -15.921875 L 8.078125 0 L 3.3125 0 Z M 14.34375 -29.09375 C 14.34375 -31.875 14.125 -33.847656 13.6875 -35.015625 C 13.25 -36.179688 12.390625 -36.765625 11.109375 -36.765625 L 8.078125 -36.765625 L 8.078125 -19.875 L 10.984375 -19.875 C 12.335938 -19.875 13.234375 -20.460938 13.671875 -21.640625 C 14.117188 -22.828125 14.34375 -25.050781 14.34375 -28.3125 Z M 14.34375 -29.09375 "/></g></g></g></g></g><g transform="matrix(1, 0, 0, 1, 261, 152)"><g clip-path="url(#0c075c3f77)"><g fill="#000000" fill-opacity="1"><g transform="translate(0.906286, 54.751974)"><g><path d="M 7.671875 -40.53125 L 13.40625 -40.53125 L 20.109375 0 L 15.609375 0 L 14.46875 -7.734375 L 7.125 -7.734375 L 6.0625 0 L 1.515625 0 Z M 7.640625 -11.609375 L 13.859375 -11.609375 L 10.671875 -33.03125 L 10.59375 -33.03125 Z M 7.640625 -11.609375 "/></g></g></g><g fill="#000000" fill-opacity="1"><g transform="translate(22.050195, 54.751974)"><g><path d="M 2.859375 -29.0625 C 2.859375 -35.019531 4.269531 -38.722656 7.09375 -40.171875 C 8.195312 -40.722656 9.410156 -41.003906 10.734375 -41.015625 C 13.203125 -41.015625 14.988281 -40.488281 16.09375 -39.4375 C 17.207031 -38.382812 17.921875 -36.992188 18.234375 -35.265625 C 18.554688 -33.546875 18.71875 -31.445312 18.71875 -28.96875 L 18.71875 -25.84375 L 14.125 -25.84375 L 14.125 -31.125 C 14.125 -33.195312 13.910156 -34.675781 13.484375 -35.5625 C 13.066406 -36.457031 12.238281 -36.90625 11 -36.90625 C 9.757812 -36.90625 8.882812 -36.34375 8.375 -35.21875 C 7.875 -34.09375 7.625 -32.113281 7.625 -29.28125 L 7.625 -12.234375 C 7.625 -8.992188 7.84375 -6.738281 8.28125 -5.46875 C 8.726562 -4.195312 9.609375 -3.5625 10.921875 -3.5625 C 12.242188 -3.5625 13.144531 -4.210938 13.625 -5.515625 C 14.101562 -6.828125 14.34375 -9.097656 14.34375 -12.328125 L 14.34375 -17.59375 L 11.0625 -17.59375 L 11.0625 -21.28125 L 18.71875 -21.28125 L 18.71875 0 L 16.21875 0 L 15.578125 -3.125 C 14.671875 -0.78125 12.9375 0.390625 10.375 0.390625 C 7.820312 0.390625 5.929688 -0.601562 4.703125 -2.59375 C 3.472656 -4.582031 2.859375 -7.738281 2.859375 -12.0625 Z M 2.859375 -29.0625 "/></g></g></g></g></g></svg>