<svg xmlns="http://www.w3.org/2000/svg" xmlns:xlink="http://www.w3.org/1999/xlink" width="1000" zoomAndPan="magnify" viewBox="0 0 750 749.999995" height="1000" preserveAspectRatio="xMidYMid meet" version="1.0"><defs><g/><clipPath id="a5fea3e864"><rect x="0" width="166" y="0" height="139"/></clipPath><clipPath id="9665b93bba"><rect x="0" width="218" y="0" height="138"/></clipPath><clipPath id="67aa266f1f"><rect x="0" width="89" y="0" height="138"/></clipPath></defs><rect x="-75" width="900" fill="#ffffff" y="-74.999999" height="899.999994" fill-opacity="1"/><rect x="-75" width="900" fill="#ffffff" y="-74.999999" height="899.999994" fill-opacity="1"/><g transform="matrix(1, 0, 0, 1, 140, 304)"><g clip-path="url(#a5fea3e864)"><g fill="#000000" fill-opacity="1"><g transform="translate(0.496265, 109.170957)"><g><path d="M 26.125 -81.078125 L 34.6875 -81.078125 L 23.453125 -39.484375 L 35.0625 0 L 26.765625 0 L 18.515625 -28.015625 L 11.234375 0 L 2.53125 0 L 14.140625 -42.9375 L 2.90625 -81.078125 L 11.234375 -81.078125 L 19.15625 -54.078125 Z M 26.125 -81.078125 "/></g></g></g><g fill="#000000" fill-opacity="1"><g transform="translate(37.993334, 109.170957)"><g><path d="M 41.140625 -81.078125 L 53.0625 -81.078125 L 53.0625 0 L 44.59375 0 L 44.59375 -32.515625 L 45.375 -62.828125 L 34.359375 -0.140625 L 25.75 -0.140625 L 14.28125 -62.828125 L 15.0625 -32.515625 L 15.0625 0 L 6.640625 0 L 6.640625 -81.078125 L 18.515625 -81.078125 L 30.125 -14.421875 Z M 41.140625 -81.078125 "/></g></g></g><g fill="#000000" fill-opacity="1"><g transform="translate(97.693828, 109.170957)"><g><path d="M 7.375 -81.078125 L 22.015625 -81.078125 C 28.128906 -81.078125 32.285156 -79.6875 34.484375 -76.90625 C 36.679688 -74.125 37.804688 -69.429688 37.859375 -62.828125 L 37.859375 -61.078125 C 37.859375 -56.316406 37.410156 -52.570312 36.515625 -49.84375 C 35.628906 -47.113281 34.035156 -45.132812 31.734375 -43.90625 C 36.710938 -41.875 39.203125 -35.378906 39.203125 -24.421875 L 39.203125 -22.703125 C 39.109375 -14.597656 37.878906 -8.785156 35.515625 -5.265625 C 33.148438 -1.753906 29.050781 0 23.21875 0 L 7.375 0 Z M 29.625 -25.796875 C 29.625 -31.015625 29.191406 -34.664062 28.328125 -36.75 C 27.472656 -38.84375 25.785156 -39.890625 23.265625 -39.890625 L 16.90625 -39.890625 L 16.90625 -7.6875 L 22.75 -7.6875 C 25.457031 -7.6875 27.28125 -8.742188 28.21875 -10.859375 C 29.15625 -12.984375 29.625 -17.023438 29.625 -22.984375 Z M 28.421875 -62.703125 C 28.421875 -62.785156 28.421875 -62.875 28.421875 -62.96875 C 28.421875 -68.375 27.484375 -71.566406 25.609375 -72.546875 C 24.691406 -73.046875 23.359375 -73.296875 21.609375 -73.296875 L 16.90625 -73.296875 L 16.90625 -47.21875 L 22.296875 -47.21875 C 24.140625 -47.21875 25.453125 -47.515625 26.234375 -48.109375 C 27.015625 -48.710938 27.570312 -49.90625 27.90625 -51.6875 C 28.25 -53.46875 28.421875 -56.382812 28.421875 -60.4375 Z M 28.421875 -62.703125 "/></g></g></g><g fill="#000000" fill-opacity="1"><g transform="translate(141.569522, 109.170957)"><g/></g></g></g></g><g transform="matrix(1, 0, 0, 1, 296, 305)"><g clip-path="url(#9665b93bba)"><g fill="#000000" fill-opacity="1"><g transform="translate(1.060135, 108.503976)"><g><path d="M 5.71875 -58.140625 C 5.71875 -70.054688 8.539062 -77.457031 14.1875 -80.34375 C 16.394531 -81.445312 18.820312 -82.015625 21.46875 -82.046875 C 26.414062 -82.046875 29.992188 -80.992188 32.203125 -78.890625 C 34.410156 -76.785156 35.835938 -74.003906 36.484375 -70.546875 C 37.128906 -67.097656 37.453125 -62.898438 37.453125 -57.953125 L 37.453125 -51.6875 L 28.234375 -51.6875 L 28.234375 -62.234375 C 28.234375 -66.378906 27.8125 -69.34375 26.96875 -71.125 C 26.125 -72.90625 24.460938 -73.796875 21.984375 -73.796875 C 19.515625 -73.796875 17.773438 -72.675781 16.765625 -70.4375 C 15.753906 -68.195312 15.25 -64.234375 15.25 -58.546875 L 15.25 -24.46875 C 15.25 -17.976562 15.691406 -13.46875 16.578125 -10.9375 C 17.472656 -8.40625 19.234375 -7.140625 21.859375 -7.140625 C 24.484375 -7.140625 26.28125 -8.441406 27.25 -11.046875 C 28.21875 -13.660156 28.703125 -18.191406 28.703125 -24.640625 L 28.703125 -35.1875 L 22.109375 -35.1875 L 22.109375 -42.5625 L 37.453125 -42.5625 L 37.453125 0 L 32.4375 0 L 31.140625 -6.265625 C 29.328125 -1.566406 25.863281 0.78125 20.75 0.78125 C 15.632812 0.78125 11.847656 -1.203125 9.390625 -5.171875 C 6.941406 -9.148438 5.71875 -15.472656 5.71875 -24.140625 Z M 5.71875 -58.140625 "/></g></g></g><g fill="#000000" fill-opacity="1"><g transform="translate(44.453549, 108.503976)"><g><path d="M 6.640625 -81.078125 L 23.625 -81.078125 C 28.445312 -81.078125 31.914062 -80.078125 34.03125 -78.078125 C 36.15625 -76.085938 37.429688 -72.695312 37.859375 -67.90625 C 38.046875 -65.9375 38.140625 -62.867188 38.140625 -58.703125 C 38.140625 -54.546875 37.59375 -51.054688 36.5 -48.234375 C 35.414062 -45.410156 33.488281 -43.582031 30.71875 -42.75 C 32.75 -42.414062 34.285156 -41.347656 35.328125 -39.546875 C 36.378906 -37.753906 37.117188 -34.898438 37.546875 -30.984375 C 37.972656 -27.066406 38.1875 -21.242188 38.1875 -13.515625 C 38.1875 -5.796875 38.429688 -1.289062 38.921875 0 L 29.4375 0 C 28.945312 -0.976562 28.703125 -10.082031 28.703125 -27.3125 C 28.703125 -33.125 28.132812 -36.492188 27 -37.421875 C 25.863281 -38.359375 24.140625 -38.828125 21.828125 -38.828125 L 16.171875 -39.15625 L 16.171875 0 L 6.640625 0 Z M 28.703125 -61.21875 C 28.703125 -67.457031 28.140625 -71.066406 27.015625 -72.046875 C 25.898438 -73.023438 24.28125 -73.515625 22.15625 -73.515625 L 16.171875 -73.515625 L 16.171875 -46.15625 L 22.25 -46.15625 C 24.09375 -46.15625 25.441406 -46.507812 26.296875 -47.21875 C 27.160156 -47.925781 27.773438 -49.273438 28.140625 -51.265625 C 28.515625 -53.265625 28.703125 -56.398438 28.703125 -60.671875 Z M 28.703125 -61.21875 "/></g></g></g><g fill="#000000" fill-opacity="1"><g transform="translate(88.353696, 108.503976)"><g><path d="M 5.71875 -59.0625 C 5.71875 -68.269531 7.375 -74.59375 10.6875 -78.03125 C 13.300781 -80.738281 17.09375 -82.09375 22.0625 -82.09375 C 29.3125 -82.09375 33.953125 -79.113281 35.984375 -73.15625 C 37.179688 -69.625 37.78125 -64.925781 37.78125 -59.0625 L 37.78125 -23.3125 C 37.78125 -14.863281 36.597656 -8.710938 34.234375 -4.859375 C 31.867188 -1.003906 27.726562 0.921875 21.8125 0.921875 C 15.894531 0.921875 11.734375 -1.007812 9.328125 -4.875 C 6.921875 -8.75 5.71875 -14.894531 5.71875 -23.3125 Z M 28.234375 -59.609375 C 28.234375 -64.796875 27.816406 -68.472656 26.984375 -70.640625 C 26.160156 -72.804688 24.488281 -73.890625 21.96875 -73.890625 C 19.457031 -73.890625 17.707031 -72.78125 16.71875 -70.5625 C 15.738281 -68.351562 15.25 -64.71875 15.25 -59.65625 L 15.25 -23.21875 C 15.25 -17.039062 15.675781 -12.835938 16.53125 -10.609375 C 17.394531 -8.390625 19.128906 -7.28125 21.734375 -7.28125 C 24.347656 -7.28125 26.082031 -8.40625 26.9375 -10.65625 C 27.800781 -12.914062 28.234375 -17.101562 28.234375 -23.21875 Z M 28.234375 -59.609375 "/></g></g></g><g fill="#000000" fill-opacity="1"><g transform="translate(131.839242, 108.503976)"><g><path d="M 28.703125 -81.078125 L 38.1875 -81.078125 L 38.1875 -20.828125 C 38.1875 -13.234375 36.992188 -7.703125 34.609375 -4.234375 C 32.234375 -0.765625 28.113281 0.96875 22.25 0.96875 C 16.382812 0.96875 12.238281 -0.765625 9.8125 -4.234375 C 7.382812 -7.703125 6.171875 -13.234375 6.171875 -20.828125 L 6.171875 -81.078125 L 15.703125 -81.078125 L 15.703125 -21.046875 C 15.703125 -15.640625 15.925781 -12.40625 16.375 -11.34375 C 16.820312 -10.289062 17.289062 -9.457031 17.78125 -8.84375 C 18.644531 -7.675781 20.132812 -7.09375 22.25 -7.09375 C 24.363281 -7.09375 25.925781 -7.738281 26.9375 -9.03125 C 27.957031 -10.320312 28.503906 -12.238281 28.578125 -14.78125 C 28.660156 -17.332031 28.703125 -19.40625 28.703125 -21 Z M 28.703125 -81.078125 "/></g></g></g><g fill="#000000" fill-opacity="1"><g transform="translate(176.200041, 108.503976)"><g><path d="M 6.640625 -81.078125 L 22.9375 -81.078125 C 30.125 -81.078125 34.640625 -78.097656 36.484375 -72.140625 C 37.648438 -68.390625 38.234375 -64.007812 38.234375 -59 C 38.234375 -54 38.097656 -50.238281 37.828125 -47.71875 C 37.210938 -42.195312 35.75 -38.164062 33.4375 -35.625 C 31.132812 -33.09375 27.632812 -31.828125 22.9375 -31.828125 L 16.171875 -31.828125 L 16.171875 0 L 6.640625 0 Z M 28.703125 -58.1875 C 28.703125 -63.738281 28.265625 -67.679688 27.390625 -70.015625 C 26.515625 -72.347656 24.785156 -73.515625 22.203125 -73.515625 L 16.171875 -73.515625 L 16.171875 -39.75 L 21.96875 -39.75 C 24.675781 -39.75 26.472656 -40.929688 27.359375 -43.296875 C 28.253906 -45.660156 28.703125 -50.097656 28.703125 -56.609375 Z M 28.703125 -58.1875 "/></g></g></g></g></g><g transform="matrix(1, 0, 0, 1, 523, 305)"><g clip-path="url(#67aa266f1f)"><g fill="#000000" fill-opacity="1"><g transform="translate(0.812575, 108.503976)"><g><path d="M 15.34375 -81.078125 L 26.8125 -81.078125 L 40.21875 0 L 31.234375 0 L 28.921875 -15.484375 L 14.234375 -15.484375 L 12.109375 0 L 3.046875 0 Z M 15.296875 -23.21875 L 27.734375 -23.21875 L 21.328125 -66.0625 L 21.1875 -66.0625 Z M 15.296875 -23.21875 "/></g></g></g><g fill="#000000" fill-opacity="1"><g transform="translate(43.100393, 108.503976)"><g><path d="M 5.71875 -58.140625 C 5.71875 -70.054688 8.539062 -77.457031 14.1875 -80.34375 C 16.394531 -81.445312 18.820312 -82.015625 21.46875 -82.046875 C 26.414062 -82.046875 29.992188 -80.992188 32.203125 -78.890625 C 34.410156 -76.785156 35.835938 -74.003906 36.484375 -70.546875 C 37.128906 -67.097656 37.453125 -62.898438 37.453125 -57.953125 L 37.453125 -51.6875 L 28.234375 -51.6875 L 28.234375 -62.234375 C 28.234375 -66.378906 27.8125 -69.34375 26.96875 -71.125 C 26.125 -72.90625 24.460938 -73.796875 21.984375 -73.796875 C 19.515625 -73.796875 17.773438 -72.675781 16.765625 -70.4375 C 15.753906 -68.195312 15.25 -64.234375 15.25 -58.546875 L 15.25 -24.46875 C 15.25 -17.976562 15.691406 -13.46875 16.578125 -10.9375 C 17.472656 -8.40625 19.234375 -7.140625 21.859375 -7.140625 C 24.484375 -7.140625 26.28125 -8.441406 27.25 -11.046875 C 28.21875 -13.660156 28.703125 -18.191406 28.703125 -24.640625 L 28.703125 -35.1875 L 22.109375 -35.1875 L 22.109375 -42.5625 L 37.453125 -42.5625 L 37.453125 0 L 32.4375 0 L 31.140625 -6.265625 C 29.328125 -1.566406 25.863281 0.78125 20.75 0.78125 C 15.632812 0.78125 11.847656 -1.203125 9.390625 -5.171875 C 6.941406 -9.148438 5.71875 -15.472656 5.71875 -24.140625 Z M 5.71875 -58.140625 "/></g></g></g></g></g></svg>