<svg xmlns="http://www.w3.org/2000/svg" xmlns:xlink="http://www.w3.org/1999/xlink" width="2000" zoomAndPan="magnify" viewBox="0 0 1500 1499.999933" height="2000" preserveAspectRatio="xMidYMid meet" version="1.0"><defs><g/><clipPath id="fd1810bbac"><rect x="0" width="330" y="0" height="276"/></clipPath><clipPath id="9043fb3cd4"><rect x="0" width="434" y="0" height="276"/></clipPath><clipPath id="ab5ce6844d"><rect x="0" width="176" y="0" height="276"/></clipPath></defs><rect x="-150" width="1800" fill="#ffffff" y="-149.999993" height="1799.99992" fill-opacity="1"/><rect x="-150" width="1800" fill="#ffffff" y="-149.999993" height="1799.99992" fill-opacity="1"/><g transform="matrix(1, 0, 0, 1, 280, 609)"><g clip-path="url(#fd1810bbac)"><g fill="#000000" fill-opacity="1"><g transform="translate(0.992548, 217.341827)"><g><path d="M 52.234375 -162.15625 L 69.375 -162.15625 L 46.890625 -78.953125 L 70.109375 0 L 53.53125 0 L 37.03125 -56.015625 L 22.484375 0 L 5.0625 0 L 28.28125 -85.875 L 5.796875 -162.15625 L 22.484375 -162.15625 L 38.328125 -108.15625 Z M 52.234375 -162.15625 "/></g></g></g><g fill="#000000" fill-opacity="1"><g transform="translate(75.986684, 217.341827)"><g><path d="M 82.28125 -162.15625 L 106.140625 -162.15625 L 106.140625 0 L 89.1875 0 L 89.1875 -65.046875 L 90.75 -125.671875 L 68.734375 -0.28125 L 51.5 -0.28125 L 28.5625 -125.671875 L 30.125 -65.046875 L 30.125 0 L 13.265625 0 L 13.265625 -162.15625 L 37.03125 -162.15625 L 60.25 -28.84375 Z M 82.28125 -162.15625 "/></g></g></g><g fill="#000000" fill-opacity="1"><g transform="translate(195.387668, 217.341827)"><g><path d="M 14.734375 -162.15625 L 44.046875 -162.15625 C 56.265625 -162.15625 64.566406 -159.375 68.953125 -153.8125 C 73.347656 -148.257812 75.609375 -138.878906 75.734375 -125.671875 L 75.734375 -122.171875 C 75.734375 -112.648438 74.84375 -105.15625 73.0625 -99.6875 C 71.28125 -94.21875 68.085938 -90.253906 63.484375 -87.796875 C 73.429688 -83.742188 78.40625 -70.753906 78.40625 -48.828125 L 78.40625 -45.421875 C 78.21875 -29.203125 75.757812 -17.578125 71.03125 -10.546875 C 66.300781 -3.515625 58.101562 0 46.4375 0 L 14.734375 0 Z M 59.234375 -51.59375 C 59.234375 -62.03125 58.375 -69.335938 56.65625 -73.515625 C 54.9375 -77.691406 51.5625 -79.78125 46.53125 -79.78125 L 33.8125 -79.78125 L 33.8125 -15.390625 L 45.515625 -15.390625 C 50.921875 -15.390625 54.554688 -17.503906 56.421875 -21.734375 C 58.296875 -25.972656 59.234375 -34.050781 59.234375 -45.96875 Z M 56.84375 -125.390625 C 56.84375 -125.578125 56.84375 -125.757812 56.84375 -125.9375 C 56.84375 -136.75 54.96875 -143.140625 51.21875 -145.109375 C 49.382812 -146.085938 46.710938 -146.578125 43.203125 -146.578125 L 33.8125 -146.578125 L 33.8125 -94.4375 L 44.59375 -94.4375 C 48.28125 -94.4375 50.90625 -95.035156 52.46875 -96.234375 C 54.03125 -97.429688 55.148438 -99.8125 55.828125 -103.375 C 56.503906 -106.9375 56.84375 -112.769531 56.84375 -120.875 Z M 56.84375 -125.390625 "/></g></g></g><g fill="#000000" fill-opacity="1"><g transform="translate(283.139053, 217.341827)"><g/></g></g></g></g><g transform="matrix(1, 0, 0, 1, 594, 610)"><g clip-path="url(#9043fb3cd4)"><g fill="#000000" fill-opacity="1"><g transform="translate(0.120275, 217.007863)"><g><path d="M 11.421875 -116.265625 C 11.421875 -140.097656 17.070312 -154.898438 28.375 -160.671875 C 32.800781 -162.890625 37.65625 -164.03125 42.9375 -164.09375 C 52.820312 -164.09375 59.972656 -161.988281 64.390625 -157.78125 C 68.816406 -153.570312 71.675781 -148.007812 72.96875 -141.09375 C 74.257812 -134.1875 74.90625 -125.789062 74.90625 -115.90625 L 74.90625 -103.375 L 56.484375 -103.375 L 56.484375 -124.46875 C 56.484375 -132.757812 55.632812 -138.6875 53.9375 -142.25 C 52.25 -145.8125 48.929688 -147.59375 43.984375 -147.59375 C 39.046875 -147.59375 35.5625 -145.347656 33.53125 -140.859375 C 31.507812 -136.378906 30.5 -128.457031 30.5 -117.09375 L 30.5 -48.921875 C 30.5 -35.960938 31.390625 -26.945312 33.171875 -21.875 C 34.953125 -16.8125 38.46875 -14.28125 43.71875 -14.28125 C 48.96875 -14.28125 52.5625 -16.890625 54.5 -22.109375 C 56.4375 -27.328125 57.40625 -36.390625 57.40625 -49.296875 L 57.40625 -70.390625 L 44.21875 -70.390625 L 44.21875 -85.125 L 74.90625 -85.125 L 74.90625 0 L 64.859375 0 L 62.28125 -12.53125 C 58.65625 -3.132812 51.726562 1.5625 41.5 1.5625 C 31.28125 1.5625 23.710938 -2.410156 18.796875 -10.359375 C 13.878906 -18.316406 11.421875 -30.957031 11.421875 -48.28125 Z M 11.421875 -116.265625 "/></g></g></g><g fill="#000000" fill-opacity="1"><g transform="translate(86.907102, 217.007863)"><g><path d="M 13.265625 -162.15625 L 47.265625 -162.15625 C 56.910156 -162.15625 63.847656 -160.15625 68.078125 -156.15625 C 72.316406 -152.164062 74.867188 -145.378906 75.734375 -135.796875 C 76.097656 -131.867188 76.28125 -125.742188 76.28125 -117.421875 C 76.28125 -109.097656 75.191406 -102.109375 73.015625 -96.453125 C 70.835938 -90.804688 66.984375 -87.15625 61.453125 -85.5 C 65.503906 -84.820312 68.570312 -82.6875 70.65625 -79.09375 C 72.75 -75.5 74.222656 -69.785156 75.078125 -61.953125 C 75.941406 -54.128906 76.375 -42.492188 76.375 -27.046875 C 76.375 -11.597656 76.867188 -2.582031 77.859375 0 L 58.875 0 C 57.894531 -1.96875 57.40625 -20.179688 57.40625 -54.640625 C 57.40625 -66.242188 56.265625 -72.984375 53.984375 -74.859375 C 51.710938 -76.734375 48.273438 -77.671875 43.671875 -77.671875 L 32.34375 -78.3125 L 32.34375 0 L 13.265625 0 Z M 57.40625 -122.4375 C 57.40625 -134.90625 56.28125 -142.125 54.03125 -144.09375 C 51.789062 -146.0625 48.550781 -147.046875 44.3125 -147.046875 L 32.34375 -147.046875 L 32.34375 -92.3125 L 44.5 -92.3125 C 48.1875 -92.3125 50.890625 -93.019531 52.609375 -94.4375 C 54.328125 -95.851562 55.554688 -98.554688 56.296875 -102.546875 C 57.035156 -106.535156 57.40625 -112.800781 57.40625 -121.34375 Z M 57.40625 -122.4375 "/></g></g></g><g fill="#000000" fill-opacity="1"><g transform="translate(174.707394, 217.007863)"><g><path d="M 11.421875 -118.109375 C 11.421875 -136.535156 14.738281 -149.191406 21.375 -156.078125 C 26.59375 -161.484375 34.175781 -164.1875 44.125 -164.1875 C 58.625 -164.1875 67.898438 -158.226562 71.953125 -146.3125 C 74.347656 -139.25 75.546875 -129.847656 75.546875 -118.109375 L 75.546875 -46.625 C 75.546875 -29.726562 73.179688 -17.425781 68.453125 -9.71875 C 63.722656 -2.007812 55.445312 1.84375 43.625 1.84375 C 31.800781 1.84375 23.476562 -2.023438 18.65625 -9.765625 C 13.832031 -17.503906 11.421875 -29.789062 11.421875 -46.625 Z M 56.484375 -119.21875 C 56.484375 -129.601562 55.648438 -136.957031 53.984375 -141.28125 C 52.328125 -145.613281 48.976562 -147.78125 43.9375 -147.78125 C 38.90625 -147.78125 35.40625 -145.566406 33.4375 -141.140625 C 31.476562 -136.722656 30.5 -129.445312 30.5 -119.3125 L 30.5 -46.4375 C 30.5 -34.09375 31.359375 -25.691406 33.078125 -21.234375 C 34.796875 -16.785156 38.265625 -14.5625 43.484375 -14.5625 C 48.703125 -14.5625 52.171875 -16.816406 53.890625 -21.328125 C 55.617188 -25.835938 56.484375 -34.207031 56.484375 -46.4375 Z M 56.484375 -119.21875 "/></g></g></g><g fill="#000000" fill-opacity="1"><g transform="translate(261.678482, 217.007863)"><g><path d="M 57.40625 -162.15625 L 76.375 -162.15625 L 76.375 -41.640625 C 76.375 -26.472656 73.992188 -15.414062 69.234375 -8.46875 C 64.472656 -1.53125 56.226562 1.9375 44.5 1.9375 C 32.769531 1.9375 24.476562 -1.53125 19.625 -8.46875 C 14.769531 -15.414062 12.34375 -26.472656 12.34375 -41.640625 L 12.34375 -162.15625 L 31.421875 -162.15625 L 31.421875 -42.109375 C 31.421875 -31.296875 31.863281 -24.828125 32.75 -22.703125 C 33.644531 -20.585938 34.582031 -18.914062 35.5625 -17.6875 C 37.28125 -15.351562 40.257812 -14.1875 44.5 -14.1875 C 48.738281 -14.1875 51.867188 -15.472656 53.890625 -18.046875 C 55.921875 -20.628906 57.015625 -24.46875 57.171875 -29.5625 C 57.328125 -34.664062 57.40625 -38.816406 57.40625 -42.015625 Z M 57.40625 -162.15625 "/></g></g></g><g fill="#000000" fill-opacity="1"><g transform="translate(350.400079, 217.007863)"><g><path d="M 13.265625 -162.15625 L 45.875 -162.15625 C 60.25 -162.15625 69.28125 -156.195312 72.96875 -144.28125 C 75.300781 -136.789062 76.46875 -128.035156 76.46875 -118.015625 C 76.46875 -108.003906 76.191406 -100.484375 75.640625 -95.453125 C 74.410156 -84.390625 71.492188 -76.320312 66.890625 -71.25 C 62.285156 -66.1875 55.28125 -63.65625 45.875 -63.65625 L 32.34375 -63.65625 L 32.34375 0 L 13.265625 0 Z M 57.40625 -116.359375 C 57.40625 -127.484375 56.523438 -135.378906 54.765625 -140.046875 C 53.015625 -144.710938 49.5625 -147.046875 44.40625 -147.046875 L 32.34375 -147.046875 L 32.34375 -79.515625 L 43.953125 -79.515625 C 49.359375 -79.515625 52.953125 -81.878906 54.734375 -86.609375 C 56.515625 -91.335938 57.40625 -100.210938 57.40625 -113.234375 Z M 57.40625 -116.359375 "/></g></g></g></g></g><g transform="matrix(1, 0, 0, 1, 1047, 610)"><g clip-path="url(#ab5ce6844d)"><g fill="#000000" fill-opacity="1"><g transform="translate(0.625138, 217.007863)"><g><path d="M 30.6875 -162.15625 L 53.625 -162.15625 L 80.4375 0 L 62.46875 0 L 57.859375 -30.953125 L 28.46875 -30.953125 L 24.234375 0 L 6.078125 0 Z M 30.59375 -46.4375 L 55.46875 -46.4375 L 42.65625 -132.125 L 42.375 -132.125 Z M 30.59375 -46.4375 "/></g></g></g><g fill="#000000" fill-opacity="1"><g transform="translate(85.200773, 217.007863)"><g><path d="M 11.421875 -116.265625 C 11.421875 -140.097656 17.070312 -154.898438 28.375 -160.671875 C 32.800781 -162.890625 37.65625 -164.03125 42.9375 -164.09375 C 52.820312 -164.09375 59.972656 -161.988281 64.390625 -157.78125 C 68.816406 -153.570312 71.675781 -148.007812 72.96875 -141.09375 C 74.257812 -134.1875 74.90625 -125.789062 74.90625 -115.90625 L 74.90625 -103.375 L 56.484375 -103.375 L 56.484375 -124.46875 C 56.484375 -132.757812 55.632812 -138.6875 53.9375 -142.25 C 52.25 -145.8125 48.929688 -147.59375 43.984375 -147.59375 C 39.046875 -147.59375 35.5625 -145.347656 33.53125 -140.859375 C 31.507812 -136.378906 30.5 -128.457031 30.5 -117.09375 L 30.5 -48.921875 C 30.5 -35.960938 31.390625 -26.945312 33.171875 -21.875 C 34.953125 -16.8125 38.46875 -14.28125 43.71875 -14.28125 C 48.96875 -14.28125 52.5625 -16.890625 54.5 -22.109375 C 56.4375 -27.328125 57.40625 -36.390625 57.40625 -49.296875 L 57.40625 -70.390625 L 44.21875 -70.390625 L 44.21875 -85.125 L 74.90625 -85.125 L 74.90625 0 L 64.859375 0 L 62.28125 -12.53125 C 58.65625 -3.132812 51.726562 1.5625 41.5 1.5625 C 31.28125 1.5625 23.710938 -2.410156 18.796875 -10.359375 C 13.878906 -18.316406 11.421875 -30.957031 11.421875 -48.28125 Z M 11.421875 -116.265625 "/></g></g></g></g></g></svg>